<svg width="24" height="24" viewBox="0 0 24 24" fill="none" xmlns="http://www.w3.org/2000/svg">
<rect width="24" height="24" fill="#D3D0D0"/>
<g id="Nav Design Home">
<rect width="1920" height="6987" transform="translate(-1561 -5498)" fill="white"/>
<g id="Group 258">
<g id="FAQ - Helio UI">
<rect x="-1322" y="-76" width="1440" height="500" rx="10" fill="#F5F5F6"/>
<g id="Group 254">
<g id="FAQ List">
<rect x="-527.5" y="-25.5" width="575" height="399" stroke="#CFCFD2"/>
<g id="Features">
<path d="M-528 -10C-528 -15.6005 -528 -18.4008 -526.91 -20.5399C-525.951 -22.4215 -524.422 -23.9513 -522.54 -24.9101C-520.401 -26 -517.601 -26 -512 -26H32C37.6005 -26 40.4008 -26 42.5399 -24.9101C44.4215 -23.9513 45.9514 -22.4215 46.9101 -20.5399C48 -18.4008 48 -15.6005 48 -10V146H-528V-10Z" fill="white"/>
<g id="FAQ Item">
<g id="Arrow Icon">
<path id="Vector" d="M12.0007 10.8284L7.05094 15.7782L5.63672 14.364L12.0007 8L18.3647 14.364L16.9505 15.7782L12.0007 10.8284Z" fill="black"/>
</g>
</g>
</g>
</g>
</g>
</g>
</g>
</g>
</svg>
