<svg preserveAspectRatio="none" width="100%" height="100%" overflow="visible" style="display: block;" viewBox="0 0 121 118" fill="none" xmlns="http://www.w3.org/2000/svg">
<g id="Group 79">
<rect id="Rectangle 72" width="121" height="118" rx="10" fill="var(--fill-0, #0982C5)"/>
<path id="Vector" d="M65.9026 62.3786L64.8904 63.3908C64.8904 63.3908 62.4846 65.7971 55.918 59.2291C49.3514 52.6613 51.7571 50.2552 51.7571 50.2552L52.3944 49.6177C53.9646 48.0473 54.1126 45.526 52.7426 43.6854L49.9406 39.9203C48.2451 37.6422 44.9688 37.3412 43.0254 39.2849L39.5374 42.7735C38.5738 43.7373 37.9281 44.9866 38.0064 46.3726C38.2068 49.9182 39.8016 57.547 48.7008 66.4478C58.138 75.8865 66.9929 76.2616 70.614 75.9221C71.7593 75.8148 72.7553 75.228 73.558 74.4251L76.7148 71.268C78.8457 69.1366 78.2448 65.4828 75.5184 63.9921L71.2729 61.6705C69.4826 60.6916 67.3017 60.9791 65.9026 62.3786Z" fill="var(--fill-0, white)"/>
</g>
</svg>
