<svg preserveAspectRatio="none" width="100%" height="100%" overflow="visible" style="display: block;" viewBox="0 0 85 85" fill="none" xmlns="http://www.w3.org/2000/svg">
<g id="Group 157">
<circle id="Ellipse 7" cx="42.5" cy="42.5" r="42.5" fill="var(--fill-0, #EAF3DE)"/>
<g id="Group 143">
<path id="Vector" d="M52.25 31.834H33.2917C32.4863 31.834 31.8334 32.4869 31.8334 33.2923V52.2507C31.8334 53.0561 32.4863 53.709 33.2917 53.709H52.25C53.0555 53.709 53.7084 53.0561 53.7084 52.2507V33.2923C53.7084 32.4869 53.0555 31.834 52.25 31.834Z" stroke="var(--stroke-0, #7AA63F)" stroke-width="2" stroke-miterlimit="10"/>
<path id="Vector_2" d="M46.4167 38.3965H39.125C38.7223 38.3965 38.3959 38.7229 38.3959 39.1257V46.4173C38.3959 46.82 38.7223 47.1465 39.125 47.1465H46.4167C46.8194 47.1465 47.1459 46.82 47.1459 46.4173V39.1257C47.1459 38.7229 46.8194 38.3965 46.4167 38.3965Z" stroke="var(--stroke-0, #7AA63F)" stroke-width="2" stroke-miterlimit="10"/>
<path id="Vector_3" d="M36.9375 59.5424V53.8477" stroke="var(--stroke-0, #7AA63F)" stroke-width="2" stroke-miterlimit="10" stroke-linecap="round"/>
<path id="Vector_4" d="M42.7709 59.5424V53.8477" stroke="var(--stroke-0, #7AA63F)" stroke-width="2" stroke-miterlimit="10" stroke-linecap="round"/>
<path id="Vector_5" d="M48.6042 59.5424V53.8477" stroke="var(--stroke-0, #7AA63F)" stroke-width="2" stroke-miterlimit="10" stroke-linecap="round"/>
<path id="Vector_6" d="M36.9375 31.8333V26" stroke="var(--stroke-0, #7AA63F)" stroke-width="2" stroke-miterlimit="10" stroke-linecap="round"/>
<path id="Vector_7" d="M42.7709 31.7604V26" stroke="var(--stroke-0, #7AA63F)" stroke-width="2" stroke-miterlimit="10" stroke-linecap="round"/>
<path id="Vector_8" d="M48.6042 31.8333V26" stroke="var(--stroke-0, #7AA63F)" stroke-width="2" stroke-miterlimit="10" stroke-linecap="round"/>
<path id="Vector_9" d="M59.5417 48.6055H53.7084" stroke="var(--stroke-0, #7AA63F)" stroke-width="2" stroke-miterlimit="10" stroke-linecap="round"/>
<path id="Vector_10" d="M59.5417 42.7715H53.7084" stroke="var(--stroke-0, #7AA63F)" stroke-width="2" stroke-miterlimit="10" stroke-linecap="round"/>
<path id="Vector_11" d="M59.5417 36.9375H53.7084" stroke="var(--stroke-0, #7AA63F)" stroke-width="2" stroke-miterlimit="10" stroke-linecap="round"/>
<path id="Vector_12" d="M31.8333 48.6055H26" stroke="var(--stroke-0, #7AA63F)" stroke-width="2" stroke-miterlimit="10" stroke-linecap="round"/>
<path id="Vector_13" d="M31.7385 42.7715H26" stroke="var(--stroke-0, #7AA63F)" stroke-width="2" stroke-miterlimit="10" stroke-linecap="round"/>
<path id="Vector_14" d="M31.8333 36.9375H26" stroke="var(--stroke-0, #7AA63F)" stroke-width="2" stroke-miterlimit="10" stroke-linecap="round"/>
</g>
</g>
</svg>
