<svg preserveAspectRatio="none" width="100%" height="100%" overflow="visible" style="display: block;" viewBox="0 0 53.6081 38" fill="none" xmlns="http://www.w3.org/2000/svg">
<g id="Group">
<path id="Vector" d="M47.3563 0H6.25184C2.79851 0 0 2.79851 0 6.2509V31.749C0 35.2015 2.79851 38 6.25184 38H47.3563C50.8087 38 53.6081 35.2015 53.6081 31.749V6.2509C53.6081 2.79851 50.8088 0 47.3563 0ZM50.623 33.4333L49.433 34.8426L32.7677 21.2414L30.1867 23.6971C28.274 25.4536 25.3342 25.4536 23.4214 23.6971L20.8405 21.2414L4.17515 34.8426L2.98509 33.4333L18.632 19.1395L2.88259 4.33818L3.81372 3.10445L26.8041 20.5245L49.7943 3.10445L50.7247 4.33818L34.9763 19.1395L50.623 33.4333Z" fill="var(--fill-0, #0982C5)"/>
</g>
</svg>
