<svg preserveAspectRatio="none" width="100%" height="100%" overflow="visible" style="display: block;" viewBox="0 0 121 118" fill="none" xmlns="http://www.w3.org/2000/svg">
<g id="Group 78">
<rect id="Rectangle 73" width="121" height="118" rx="10" fill="var(--fill-0, #E0E0E0)"/>
<path id="Vector" d="M60.5 40C52.4924 40 46 46.3804 46 54.25C46 57.3488 47.0337 60.1923 48.752 62.5209C48.7828 62.5768 48.7876 62.6391 48.8227 62.6925L58.4893 76.9425C58.9376 77.6034 59.6928 78 60.5 78C61.3072 78 62.0624 77.6034 62.5107 76.9425L72.1773 62.6925C72.213 62.6391 72.2172 62.5768 72.248 62.5209C73.9663 60.1923 75 57.3488 75 54.25C75 46.3804 68.5076 40 60.5 40ZM60.5 59C57.8308 59 55.6667 56.8732 55.6667 54.25C55.6667 51.6268 57.8308 49.5 60.5 49.5C63.1692 49.5 65.3333 51.6268 65.3333 54.25C65.3333 56.8732 63.1692 59 60.5 59Z" fill="var(--fill-0, #0982C5)"/>
</g>
</svg>
