<svg preserveAspectRatio="none" width="100%" height="100%" overflow="visible" style="display: block;" viewBox="0 0 85 85" fill="none" xmlns="http://www.w3.org/2000/svg">
<g id="Group 146">
<circle id="Ellipse 1" cx="42.5" cy="42.5" r="42.5" fill="var(--fill-0, #EEEDFE)"/>
<g id="message-chat-01">
<path id="Icon" d="M27.6246 40.375C27.6246 30.9862 35.2352 23.375 44.6232 23.375C54.0113 23.375 61.6218 30.9862 61.6218 40.375C61.6218 42.8188 61.1062 45.1422 60.1778 47.2422L61.625 57.3734L52.9435 55.2028C50.4841 56.586 47.6458 57.375 44.6232 57.375M23.377 51C23.377 52.5274 23.6992 53.9795 24.2794 55.292L23.375 61.624L28.8004 60.2674C30.3374 61.1319 32.1112 61.625 34.0001 61.625C39.8671 61.625 44.6232 56.868 44.6232 51C44.6232 45.132 39.8671 40.375 34.0001 40.375C28.1331 40.375 23.377 45.132 23.377 51Z" stroke="var(--stroke-0, #9791FF)" stroke-width="3" stroke-linecap="round" stroke-linejoin="round"/>
</g>
</g>
</svg>
